<svg width="624" height="255" viewBox="0 0 624 255" fill="none" xmlns="http://www.w3.org/2000/svg">
<g clip-path="url(#clip0_1_305)">
<g clip-path="url(#clip1_1_305)">
<g clip-path="url(#clip2_1_305)">
<mask id="mask0_1_305" style="mask-type:luminance" maskUnits="userSpaceOnUse" x="0" y="0" width="624" height="255">
<path d="M623.996 0H0.00390625V254.11H623.996V0Z" fill="white"/>
</mask>
<g mask="url(#mask0_1_305)">
<path d="M623.996 0H0.00390625V254.11H623.996V0Z" fill="#EAEAEA"/>
<path d="M500.65 102.815C516.507 102.815 537.097 102.64 553.244 90.0491V244.068V247.012H556.187H618.081H621.024V244.068V9.87527V6.93195H618.081H556.187H554.081L553.402 8.92419C548.882 22.1602 542.54 30.5126 534.08 36.0611C525.525 41.673 514.516 44.6127 500.276 46.434L497.706 46.7627V49.3536V99.8721V102.815H500.65ZM284.358 126.972C284.358 174.707 297.914 205.662 317.318 224.675C336.69 243.658 361.507 250.357 383.321 250.357C405.623 250.357 430.531 243.665 449.87 224.673C469.235 205.654 482.618 174.696 482.618 126.972C482.618 79.5766 469.232 48.7042 449.87 29.6891C430.536 10.702 405.631 3.9209 383.321 3.9209C361.499 3.9209 336.685 10.7086 317.318 29.6868C297.917 48.6964 284.358 79.5654 284.358 126.972ZM383.321 192.948C375.838 192.948 370.129 190.749 365.688 187.124C361.197 183.46 357.82 178.186 355.325 171.78C350.31 158.9 349.128 142.141 349.128 126.972C349.128 111.973 350.309 95.2974 355.324 82.4588C357.818 76.0741 361.196 70.8107 365.687 67.1505C370.129 63.5297 375.838 61.3302 383.321 61.3302C390.894 61.3302 396.67 63.5345 401.158 67.1589C405.694 70.8212 409.099 76.0847 411.612 82.4663C416.666 95.3009 417.848 111.972 417.848 126.972C417.848 142.141 416.666 158.896 411.611 171.773C409.098 178.176 405.692 183.449 401.157 187.115C396.669 190.744 390.894 192.948 383.321 192.948Z" stroke="white" stroke-width="5.88672"/>
</g>
</g>
</g>
</g>
<defs>
<clipPath id="clip0_1_305">
<rect width="624" height="254.11" fill="white"/>
</clipPath>
<clipPath id="clip1_1_305">
<rect width="624" height="254.11" fill="white"/>
</clipPath>
<clipPath id="clip2_1_305">
<rect width="623.992" height="254.11" fill="white" transform="translate(0.00390625)"/>
</clipPath>
</defs>
</svg>
