<svg width="709" height="174" viewBox="0 0 709 174" fill="none" xmlns="http://www.w3.org/2000/svg">
<g clip-path="url(#clip0_1_138)">
<g clip-path="url(#clip1_1_138)">
<g clip-path="url(#clip2_1_138)">
<mask id="mask0_1_138" style="mask-type:luminance" maskUnits="userSpaceOnUse" x="0" y="0" width="709" height="174">
<path d="M0.523438 1.08081H708.136V172.955H0.523438V1.08081Z" fill="white"/>
<path d="M0.523438 1.08081H708.136V172.955H0.523438V1.08081Z" stroke="white"/>
</mask>
<g mask="url(#mask0_1_138)">
<path d="M1.15381 6.33887H17.3193V50.6296H25.2472V6.33887H50.4788V122.88H25.2472V74.388H17.3193V122.88H1.15381V6.33887Z" fill="#323232"/>
<path d="M147.31 64.5333C147.31 102.068 134.922 125.627 98.8673 125.627C66.0948 125.627 53.8545 102.475 53.8545 64.2697C53.8545 28.4124 66.0948 4.76562 100.4 4.76562C134.705 4.76562 147.31 28.8356 147.31 64.5413V64.5333ZM88.0516 64.0461C88.0516 90.9193 89.5612 98.6978 96.9777 98.6978C104.395 98.6978 106.795 91.2223 106.795 63.7586C106.795 38.3151 104.481 31.7745 96.893 31.7745C89.9404 31.7745 88.0439 38.1394 88.0439 64.0381L88.0516 64.0461Z" fill="#323232"/>
<path d="M174.725 36.5822H146.319V6.34692H252.997V36.5822H220.86V122.887H174.725V36.5822Z" fill="#323232"/>
<path d="M300.619 87.1341C301.726 92.0456 304.559 97.6357 313.069 97.6357C319.533 97.6357 323.001 94.928 323.001 90.8551C323.001 86.7823 321.895 83.564 303.77 80.0102C260.267 71.537 256.009 54.4309 256.009 39.1855C256.009 17.1679 274.288 0.564941 311.342 0.564941C345.229 0.564941 368.665 13.6142 370.399 37.4845H323.791C322.846 32.3974 320.323 28.5082 312.914 28.5082C307.555 28.5082 304.877 30.7123 304.877 34.1064C304.877 38.1713 309.608 40.1998 321.91 42.5796C362.579 50.2063 373.449 65.1083 373.449 83.9154C373.449 109.838 351.067 125.922 314.02 125.922C273.669 125.922 254.329 108.984 251.023 87.1341H300.627H300.619Z" fill="#323232"/>
<path d="M417.107 104.08L413.956 122.887H368.912L400.284 6.34692H462.762L490.796 122.887H446.31L442.919 104.08H417.083H417.092H417.107ZM436.888 72.743C435.363 63.6709 431.6 46.1495 429.718 33.2759H430.269C428.371 46.6606 425.468 61.1073 423.378 72.743H436.904H436.896H436.888Z" fill="#323232"/>
<path d="M529.243 6.33887V88.9227C529.243 95.296 535.042 98.6738 540.3 98.6738C545.208 98.6738 551.038 95.4714 551.038 88.9227V6.33887H588.781V84.2189C588.781 114.742 565.082 126.193 538.465 126.193C511.847 126.193 487.591 113.791 487.591 83.9713V6.33887H529.243Z" fill="#323232"/>
<path d="M666.496 82.7815V84.0672C666.496 106.596 659.737 126.202 633.267 126.202C609.421 126.202 593.952 112.21 593.952 69.1572V61.6423C593.952 17.2558 613.068 3.41602 633.995 3.41602C659.93 3.41602 666.496 24.9464 666.496 44.7678V46.2692H636.294V44.3605C636.294 34.2661 634.916 30.4009 632.562 30.4009C630.642 30.4009 627.6 34.4818 627.6 60.6201V69.0614C627.6 96.5737 630.224 100.278 632.516 100.278C635.04 100.278 636.425 95.99 636.425 84.8099V82.7815H666.504H666.496Z" fill="#323232"/>
<path d="M704.695 70.8742H690.954V100.686H708.636L705.803 122.88H670.956V6.33887H705.648V28.5321H690.954V48.697H704.695V70.8901V70.8742Z" fill="#323232"/>
<path d="M262.667 165.74V141.623H266.298V151.126C267.444 149.361 269.163 148.498 271.447 148.483C273.397 148.483 274.907 149.082 275.968 150.272C277.036 151.461 277.57 153.122 277.57 155.246V165.733H273.94V155.766C273.94 153.011 272.747 151.638 270.378 151.638C269.186 151.638 268.21 152.012 267.452 152.739C266.693 153.482 266.306 154.528 266.306 155.87V165.724H262.675L262.66 165.748L262.667 165.74Z" fill="#323232"/>
<path d="M294.735 163.672C293.125 165.333 291.089 166.164 288.65 166.164C286.211 166.164 284.175 165.333 282.541 163.672C280.915 162.011 280.103 159.887 280.103 157.324C280.103 154.76 280.923 152.643 282.541 150.998C284.167 149.345 286.195 148.515 288.65 148.515C291.104 148.515 293.125 149.345 294.735 150.998C296.345 152.652 297.151 154.76 297.151 157.324C297.151 159.887 296.345 162.011 294.735 163.672ZM285.197 161.548C286.064 162.594 287.202 163.113 288.65 163.113C290.098 163.113 291.235 162.594 292.103 161.548C292.97 160.502 293.403 159.088 293.403 157.315C293.403 155.543 292.97 154.16 292.095 153.122C291.22 152.077 290.074 151.557 288.665 151.557C287.257 151.557 286.079 152.068 285.212 153.098C284.345 154.129 283.911 155.534 283.911 157.315C283.911 159.096 284.345 160.502 285.212 161.548H285.197Z" fill="#323232"/>
<path d="M305.567 166.164C302.221 166.164 300.549 164.319 300.549 160.622V152.084H298.025V148.922H300.65L301.494 143.963H304.227V148.922H310.723V152.084H304.227V160.517C304.227 162.067 304.777 162.842 305.875 162.842C306.914 162.842 307.834 161.876 308.663 159.927L311.489 161.412C310.096 164.575 308.121 166.164 305.574 166.164H305.567Z" fill="#323232"/>
<path d="M312.65 173.447C311.039 173.447 309.7 172.992 308.647 172.057L309.995 169.103C310.645 169.885 311.357 170.285 312.108 170.285C313.123 170.285 313.626 169.614 313.626 168.272V148.914H317.257V168.344C317.257 170.141 316.823 171.443 315.956 172.249C315.089 173.04 313.982 173.439 312.65 173.455V173.439V173.447ZM315.437 146.079C314.833 146.103 314.261 145.88 313.827 145.456C313.626 145.257 313.455 145.008 313.347 144.721C313.239 144.45 313.176 144.154 313.192 143.851C313.192 143.555 313.239 143.251 313.347 142.972C313.455 142.701 313.626 142.438 313.827 142.237C314.268 141.83 314.841 141.59 315.437 141.59C316.033 141.59 316.607 141.815 317.048 142.237C317.265 142.445 317.435 142.693 317.543 142.972C317.651 143.251 317.714 143.555 317.698 143.851C317.698 144.147 317.651 144.45 317.527 144.705C317.404 144.961 317.249 145.224 317.032 145.424C316.815 145.631 316.576 145.799 316.297 145.911C316.018 146.023 315.732 146.071 315.43 146.071L315.437 146.079Z" fill="#323232"/>
<path d="M326.276 166.164C324.411 166.164 322.909 165.676 321.755 164.726C320.601 163.768 320.02 162.482 320.02 160.853C320.02 159.376 320.625 158.122 321.824 157.092C323.024 156.061 324.534 155.55 326.346 155.55C328.157 155.55 329.776 156.157 331.061 157.387V155.342C331.061 154.137 330.759 153.211 330.17 152.547C329.582 151.893 328.731 151.557 327.631 151.557C325.409 151.557 324.031 152.724 323.497 155.056L320.168 154.321C320.609 152.523 321.499 151.094 322.823 150.056C324.147 149.01 325.796 148.491 327.771 148.491C329.923 148.491 331.618 149.074 332.873 150.24C334.111 151.406 334.739 153.115 334.739 155.351V165.724H331.201V163.6C330.008 165.285 328.375 166.132 326.292 166.132L326.276 166.156V166.164ZM326.95 163.384C328.561 163.384 329.931 162.554 331.054 160.893V160.374C329.938 158.985 328.561 158.29 326.95 158.29C326.013 158.29 325.239 158.529 324.666 159C324.388 159.208 324.17 159.488 324.015 159.807C323.86 160.126 323.783 160.478 323.783 160.821C323.783 161.164 323.845 161.532 324 161.852C324.147 162.171 324.372 162.458 324.65 162.674C325.231 163.145 325.982 163.384 326.958 163.384L326.942 163.401L326.95 163.384Z" fill="#323232"/>
<path d="M338.253 165.74V148.914H341.791V151.829C342.698 149.704 344.23 148.642 346.437 148.642C347.738 148.642 348.821 149.073 349.657 149.96C350.51 150.838 350.935 152.02 350.935 153.498C350.935 154.376 350.78 155.263 350.501 156.101L347.172 155.75C347.242 155.294 347.281 154.831 347.304 154.361C347.304 152.619 346.607 151.757 345.221 151.757C344.284 151.757 343.487 152.268 342.853 153.299C342.218 154.328 341.892 155.678 341.892 157.379V165.74H338.261H338.253Z" fill="#323232"/>
<path d="M239.983 151.502C242.693 149.953 246.393 147.828 246.393 141.639H241.903C241.903 145.097 240.269 146.031 237.799 147.46C235.09 149.01 231.389 151.134 231.389 157.324H235.879C235.879 153.865 237.513 152.931 239.983 151.502Z" fill="#FF3C00"/>
<path d="M247.74 150.072C247.74 153.53 246.106 154.464 243.637 155.894C240.927 157.443 237.227 159.568 237.227 165.757H241.717C241.717 162.298 243.351 161.364 245.821 159.935C248.53 158.386 252.231 156.262 252.231 150.072H247.74Z" fill="#FF3C00"/>
<path d="M6.29455 147.827H11.0792L17.3503 165.716H13.4637L12.3489 162.37H5.02485L3.90998 165.716H0.0234375L6.29455 147.827ZM11.3966 159.527L8.79526 151.733H8.57074L5.96939 159.527H11.3966Z" fill="#323232"/>
<path d="M24.3801 156.772C24.3801 150.998 27.5544 147.596 32.5791 147.596C36.3727 147.596 39.4154 149.593 39.7637 154.033H36.1482C35.6526 151.813 34.2436 150.886 32.4551 150.886C29.4358 150.886 28.1661 153.466 28.1661 156.764C28.1661 160.062 29.4048 162.666 32.4551 162.666C34.2358 162.666 35.6526 161.747 36.1482 159.496H39.7637C39.4154 163.968 36.3727 165.964 32.5326 165.964C27.5544 165.964 24.3801 162.562 24.3801 156.764V156.772Z" fill="#323232"/>
<path d="M41.2888 156.772C41.2888 151.278 44.556 147.596 49.5651 147.596C54.5743 147.596 57.8414 151.278 57.8414 156.772C57.8414 162.267 54.5743 165.972 49.5651 165.972C44.556 165.972 41.2888 162.243 41.2888 156.772ZM49.5651 162.674C52.4142 162.674 54.0246 160.326 54.0246 156.772C54.0246 153.218 52.4142 150.895 49.5651 150.895C46.716 150.895 45.1057 153.194 45.1057 156.772C45.1057 160.35 46.716 162.674 49.5651 162.674Z" fill="#323232"/>
<path d="M60.1797 147.827H64.043L71.0263 159.583H71.1038V147.827H74.82V165.716H70.8096L63.9733 154.193H63.8959V165.716H60.1797V147.827Z" fill="#323232"/>
<path d="M77.8007 147.827H89.2667V151.15H81.5092V155.342H87.9273V158.433H81.5092V165.716H77.793V147.827H77.8007Z" fill="#323232"/>
<path d="M91.0476 147.828H102.885V151.15H94.7558V155.159H102.142V158.146H94.7558V162.387H103.133V165.709H91.0476V147.82V147.828Z" fill="#323232"/>
<path d="M105.51 147.827H112.524C117.131 147.827 119.136 150.303 119.136 153.81C119.136 156.341 118.067 158.386 115.668 159.28L119.307 165.716H115.637L112.339 159.759H109.218V165.716H105.502V147.827H105.51ZM112.4 156.437C114.429 156.437 115.327 155.39 115.327 153.801C115.327 152.212 114.436 151.142 112.4 151.142H109.226V156.429H112.4V156.437Z" fill="#323232"/>
<path d="M121.482 147.828H133.32V151.15H125.19V155.159H132.576V158.146H125.19V162.387H133.567V165.709H121.482V147.82V147.828Z" fill="#323232"/>
<path d="M135.952 147.827H139.815L146.799 159.583H146.876V147.827H150.593V165.716H146.581L139.745 154.193H139.668V165.716H135.952V147.827Z" fill="#323232"/>
<path d="M152.977 156.772C152.977 150.998 156.151 147.596 161.175 147.596C164.969 147.596 168.012 149.593 168.36 154.033H164.745C164.25 151.813 162.84 150.886 161.051 150.886C158.032 150.886 156.763 153.466 156.763 156.764C156.763 160.062 158.001 162.666 161.051 162.666C162.832 162.666 164.25 161.747 164.745 159.496H168.36C168.012 163.968 164.969 165.964 161.129 165.964C156.151 165.964 152.977 162.562 152.977 156.764V156.772Z" fill="#323232"/>
<path d="M170.614 147.828H182.451V151.15H174.322V155.159H181.707V158.146H174.322V162.387H182.698V165.709H170.614V147.82V147.828Z" fill="#323232"/>
<path d="M191.354 147.827H198.392C202.255 147.827 204.012 149.593 204.012 152.3C204.012 154.241 203.146 155.342 201.512 155.878C204.09 156.596 205.205 158.257 205.205 160.478C205.205 163.369 203.27 165.716 198.686 165.716H191.354V147.827ZM198.245 155.087C199.359 155.087 200.304 154.472 200.304 153.019C200.304 151.566 199.359 151.054 198.245 151.054H195.071V155.095H198.245V155.087ZM198.57 162.499C200.653 162.499 201.373 161.348 201.373 160.047C201.373 158.745 200.653 157.515 198.57 157.515H195.079V162.499H198.57Z" fill="#323232"/>
<path d="M211.468 159.144L205.198 147.827H209.409L213.373 155.447L217.361 147.827H221.572L215.301 159.144V165.709H211.461V159.144H211.468Z" fill="#323232"/>
</g>
</g>
</g>
</g>
<defs>
<clipPath id="clip0_1_138">
<rect width="708.66" height="173.73" fill="white" transform="translate(0 0.0600586)"/>
</clipPath>
<clipPath id="clip1_1_138">
<rect width="708.66" height="173.73" fill="white" transform="translate(0 0.0600586)"/>
</clipPath>
<clipPath id="clip2_1_138">
<rect width="708.613" height="173.73" fill="white" transform="translate(0.0234375 0.0600586)"/>
</clipPath>
</defs>
</svg>
