<svg width="10" height="220" viewBox="0 0 10 220" fill="none" xmlns="http://www.w3.org/2000/svg">
<g clip-path="url(#clip0_1_232)">
<path fill-rule="evenodd" clip-rule="evenodd" d="M0.958138 211.426C5.54231 211.518 9.23009 215.263 9.23009 219.87C9.23009 219.913 9.22976 219.957 9.2291 220L10.9885 220V0.102982L9.22803 0.103653C9.22945 0.167175 9.23017 0.231354 9.23017 0.295547C9.23017 4.90218 5.54234 8.64687 0.958138 8.73915V19.2985C5.54234 19.3907 9.23017 23.1361 9.23017 27.7421C9.23017 32.3487 5.54234 36.0934 0.958138 36.1857V46.7457C5.54234 46.8379 9.23017 50.5826 9.23017 55.1892C9.23017 59.7952 5.54234 63.5406 0.958138 63.6328V74.1922C5.54234 74.2844 9.23017 78.0291 9.23017 82.6357C9.23017 87.2417 5.54234 90.9871 0.958138 91.0793V101.639C5.54234 101.732 9.23017 105.476 9.23017 110.083C9.23017 114.689 5.54234 118.434 0.958138 118.526V129.086C5.54234 129.178 9.23017 132.923 9.23017 137.529C9.23017 142.135 5.54234 145.88 0.958138 145.972V156.533C5.54234 156.625 9.23017 160.37 9.23017 164.976C9.23017 169.582 5.54234 173.327 0.958138 173.419V183.979C5.54234 184.071 9.23017 187.816 9.23017 192.423C9.23017 197.029 5.54234 200.774 0.958138 200.866V211.426Z" fill="white"/>
</g>
<defs>
<clipPath id="clip0_1_232">
<rect width="10.6991" height="220" fill="white" transform="matrix(-1 0 0 -1 11 220)"/>
</clipPath>
</defs>
</svg>
