<svg width="403" height="253" viewBox="0 0 403 253" fill="none" xmlns="http://www.w3.org/2000/svg">
<path d="M281.581 124.727L281.569 124.734L281.556 124.741C255.946 139.327 240.648 154.845 231.829 172.442C223.032 189.99 220.852 209.273 220.852 231.012V243.057V246H223.795H395.76H398.704V243.057V192.203V189.26H395.76H298.358C299.029 186.85 300.781 183.959 304.737 180.202C310.276 174.942 319.793 168.317 335.616 159.321C336.575 158.815 337.562 158.298 338.574 157.768C362.665 145.147 400.711 125.215 400.711 76.1101C400.711 54.4991 393.339 36.066 378.413 23.0781C363.539 10.1348 341.522 2.90869 312.789 2.90869C280.438 2.90869 258.157 12.2032 243.988 27.2088C229.852 42.1785 224.198 62.4019 224.198 83.4704V90.8308V93.7741H227.141H287.028H289.971V90.8308V86.1469C289.971 75.5203 293.045 69.3986 296.977 65.8839C300.974 62.3112 306.353 60.9871 311.785 60.9871C315.782 60.9871 321.36 61.2695 325.777 63.7473C327.916 64.947 329.763 66.6536 331.049 69.1363C332.344 71.6366 333.166 75.1117 332.934 79.9848L332.932 80.0128L332.931 80.0407C332.632 90.5219 327.517 97.4639 318.512 103.958C313.955 107.244 308.479 110.356 302.211 113.709C300.142 114.816 297.981 115.952 295.746 117.127C291.274 119.478 286.504 121.986 281.581 124.727ZM3.86279 125.96C3.86279 173.694 17.4189 204.65 36.8225 223.663C56.1947 242.646 81.0122 249.346 102.825 249.346C125.129 249.346 150.036 242.652 169.375 223.661C188.74 204.642 202.123 173.684 202.123 125.96C202.123 78.5643 188.737 47.692 169.375 28.6768C150.041 9.68976 125.137 2.90869 102.825 2.90869C81.0043 2.90869 56.1908 9.69647 36.8225 28.6746C17.4219 47.6843 3.86279 78.5532 3.86279 125.96ZM102.825 191.936C95.3434 191.936 89.6352 189.737 85.1927 186.112C80.7031 182.447 77.3251 177.175 74.8301 170.769C69.8146 157.888 68.6324 141.128 68.6324 125.96C68.6324 110.961 69.8137 94.2852 74.8291 81.4467C77.3231 75.0618 80.7011 69.7984 85.1917 66.1383C89.6342 62.5174 95.3434 60.318 102.825 60.318C110.399 60.318 116.175 62.5223 120.663 66.1468C125.199 69.8089 128.604 75.0724 131.117 81.454C136.171 94.2886 137.353 110.96 137.353 125.96C137.353 141.129 136.171 157.884 131.116 170.761C128.603 177.164 125.197 182.437 120.662 186.104C116.174 189.732 110.399 191.936 102.825 191.936Z" stroke="white" stroke-width="5.88672"/>
</svg>
