<svg width="411" height="253" viewBox="0 0 411 253" fill="none" xmlns="http://www.w3.org/2000/svg">
<path d="M219.621 158.149H216.697L216.677 161.073C216.508 187.128 222.977 209.395 238.072 225.148C253.186 240.921 276.486 249.683 308.949 249.683C339.542 249.683 364.077 241.78 381.032 228.391C398.035 214.962 407.242 196.134 407.242 174.809C407.242 152.812 398.203 138.447 387.567 129.635C381.771 124.833 375.503 121.684 370 119.825C383.478 113.172 399.213 97.7854 399.213 69.4221C399.213 49.0819 390.49 32.4074 375.206 20.9012C360.003 9.45561 338.495 3.24658 312.964 3.24658C283.318 3.24658 261.057 11.5199 246.216 26.5366C231.383 41.5446 224.372 62.8737 224.372 88.1576V91.101H227.316H284.86H287.722L287.803 88.2405C288.119 77.0391 291.862 70.5469 296.396 66.7976C301.022 62.9735 306.886 61.6595 311.96 61.6595C316.928 61.6595 322.377 62.8356 326.495 65.7257C330.464 68.5101 333.439 73.04 333.439 80.4627C333.439 83.744 333.232 88.286 329.966 92.0969C326.743 95.8564 319.903 99.6005 304.934 99.6005H291.552H288.608V102.544V146.037V148.98H291.552H307.611C321.124 148.98 328.8 152 333.097 155.942C337.337 159.832 338.792 165.09 338.792 170.794C338.792 179.235 335.038 184.335 329.877 187.475C324.53 190.728 317.522 191.94 311.291 191.94C304.681 191.94 297.145 190.795 291.277 186.523C285.577 182.375 280.937 174.895 280.778 161.058L280.745 158.149H277.835H219.621ZM3.36829 126.298C3.36829 174.032 16.9244 204.988 36.328 224.001C55.7002 242.983 80.5176 249.683 102.331 249.683C124.635 249.683 149.541 242.99 168.88 223.999C188.246 204.981 201.628 174.021 201.628 126.298C201.628 78.9022 188.243 48.0299 168.88 29.0148C149.546 10.0276 124.643 3.24658 102.331 3.24658C80.5098 3.24658 55.6963 10.0344 36.328 29.0125C16.9274 48.0221 3.36829 78.8911 3.36829 126.298ZM102.331 192.274C94.8489 192.274 89.1407 190.074 84.6982 186.449C80.2086 182.785 76.8306 177.512 74.3356 171.106C69.3201 158.225 68.1379 141.466 68.1379 126.298C68.1379 111.298 69.3201 94.6231 74.3346 81.7845C76.8286 75.3998 80.2066 70.1363 84.6972 66.4761C89.1397 62.8554 94.8489 60.6558 102.331 60.6558C109.904 60.6558 115.68 62.8602 120.169 66.4847C124.704 70.1468 128.11 75.4104 130.622 81.792C135.676 94.6265 136.858 111.297 136.858 126.298C136.858 141.467 135.676 158.222 130.621 171.099C128.109 177.501 124.702 182.775 120.168 186.441C115.679 190.07 109.904 192.274 102.331 192.274Z" stroke="white" stroke-width="5.88672"/>
</svg>
