<svg width="343" height="253" viewBox="0 0 343 253" fill="none" xmlns="http://www.w3.org/2000/svg">
<path d="M219.65 102.025C235.507 102.025 256.097 101.85 272.244 89.2591V243.278V246.222H275.187H337.081H340.024V243.278V9.08524V6.14192H337.081H275.187H273.081L272.402 8.13415C267.882 21.3701 261.54 29.7226 253.08 35.271C244.525 40.8829 233.516 43.8227 219.276 45.644L216.706 45.9727V48.5635V99.0821V102.025H219.65ZM3.35791 126.182C3.35791 173.917 16.9141 204.872 36.3177 223.885C55.6899 242.868 80.5073 249.567 102.321 249.567C124.623 249.567 149.531 242.875 168.87 223.883C188.235 204.864 201.618 173.906 201.618 126.182C201.618 78.7865 188.232 47.9141 168.87 28.899C149.536 9.91193 124.631 3.13086 102.321 3.13086C80.4994 3.13086 55.685 9.9186 36.3177 28.8968C16.917 47.9064 3.35791 78.7753 3.35791 126.182ZM102.321 192.158C94.8385 192.158 89.1294 189.959 84.6878 186.334C80.1973 182.67 76.8202 177.396 74.3252 170.99C69.3098 158.11 68.1275 141.351 68.1275 126.182C68.1275 111.183 69.3088 94.5074 74.3243 81.6688C76.8183 75.284 80.1963 70.0206 84.6869 66.3605C89.1294 62.7396 94.8385 60.5402 102.321 60.5402C109.894 60.5402 115.67 62.7444 120.158 66.3689C124.694 70.0311 128.099 75.2946 130.612 81.6762C135.666 94.5108 136.848 111.182 136.848 126.182C136.848 141.351 135.666 158.106 130.611 170.983C128.098 177.386 124.692 182.659 120.157 186.325C115.669 189.954 109.894 192.158 102.321 192.158Z" stroke="white" stroke-width="5.88672"/>
</svg>
